<svg width="44" height="44" viewBox="0 0 44 44" fill="none" xmlns="http://www.w3.org/2000/svg">
<path d="M44 20.0575V10.3947C44 8.5898 42.4691 6.54277 40.5679 5.86043L26.8148 0.841921C23.7283 -0.28064 20.2469 -0.28064 17.1604 0.841921L3.40742 5.86043C1.53087 6.54277 0 8.5898 0 10.3947V20.0575C0 30.8209 8.76545 40.9019 20.7407 43.8514C21.5555 44.0495 22.4444 44.0495 23.2592 43.8514C35.2346 40.9019 44 30.8209 44 20.0575ZM23.8518 23.9094V29.6983C23.8518 30.6008 23.0123 31.3492 22 31.3492C20.9876 31.3492 20.1481 30.6008 20.1481 29.6983V23.9094C17.6543 23.2051 15.8272 21.1361 15.8272 18.6928C15.8272 15.6553 18.5925 13.1901 22 13.1901C25.4074 13.1901 28.1728 15.6553 28.1728 18.6928C28.1728 21.1581 26.3456 23.2051 23.8518 23.9094Z" fill="#292D32"/>
</svg>
